# xmcd CD database file
#
# Track frame offsets:
#	150
#	15560
#	28637
#	41795
#	58625
#	78090
#	92612
#	109797
#	124297
#	142130
#	156552
#	171617
#	192285
#
# Disc length: 2778 seconds
#
# Revision: 2
# Processed by: cddbd v1.5.1PL0 Copyright (c) Steve Scherf et al.
# Submitted via: CDex 1.50
#
DISCID=b50ad80d
DTITLE=???? - ??????????? Disc 1
DYEAR=1992
DGENRE=New Age
TTITLE0=?????
TTITLE1=??????????????
TTITLE2=??????
TTITLE3=???????????
TTITLE4=????
TTITLE5=???????
TTITLE6=??????
TTITLE7=?????
TTITLE8=???????????
TTITLE9=12???
TTITLE10=????
TTITLE11=??????????????
TTITLE12=????????
EXTD=YEAR: 1992
EXTT0=
EXTT1=
EXTT2=
EXTT3=
EXTT4=
EXTT5=
EXTT6=
EXTT7=
EXTT8=
EXTT9=
EXTT10=
EXTT11=
EXTT12=
PLAYORDER=
